<svg xmlns="http://www.w3.org/2000/svg" xmlns:xlink="http://www.w3.org/1999/xlink" aria-hidden="true" role="img" class="iconify iconify--logos" width="31.88" height="32" preserveAspectRatio="xMidYMid meet" viewBox="0 0 256 257"><defs><linearGradient id="IconifyId1813088fe1fbc011f8c8fb350b0" x1="-.828%" x2="237.818%" y1="7.652%" y2="78.411%"><stop offset="0%" stop-color="#41D1FF"></stop><stop offset="100%" stop-color="#BD34FE"></stop></linearGradient><linearGradient id="IconifyId1813088fe1fbc011f8c8fb350b1" x1="43.376%" x2="50.316%" y1="2.242%" y2="89.03%"><stop offset="0%" stop-color="#FFBD34"></stop><stop offset="100%" stop-color="#FFE042"></stop></linearGradient></defs><path fill="url(#IconifyId1813088fe1fbc011f8c8fb350b0)" d="M255.153 37.938L134.897 252.17c-3.492 6.684-12.797 6.222-15.73-.82L4.01 81.13C-1.008 71.618 5.918 61.012 16.472 61.012h99.543l46.603-54.355c4.052-4.716 11.12-2.925 11.837 2.91l20.631 85.124l81.468 2.094c9.106.234 14.678 11.884 8.6 18.163l-62.602 65.99l36.283 81.743l4.088 9.169l-4.088-9.169l-36.283-81.743l24.705-128.595l8.325-3.743Z"></path><path fill="url(#IconifyId1813088fe1fbc011f8c8fb350b1)" d="M178.69 158.382l-25.369-110.884l-7.306 2.97l25.369 110.884l7.306-2.97Z"></path></svg>